<svg aria-hidden="true" style="position:absolute;width:0;height:0;overflow:hidden" xmlns="http://www.w3.org/2000/svg">
  <defs>
    <symbol id="logo" viewBox="0 0 107 32">
      <path fill="#ff6b0a" style="fill:var(--color1, #ff6b0a)" d="M106.667 0v32H59.536V0h47.131zM74.42 8.811v13.927l.001.044a.842.842 0 0 1-.001.087c-.007.08.015.128.107.115a.485.485 0 0 1 .066-.001l.033.001h3.582c.075.001.112.001.129-.017s.016-.051.014-.116l-.001-.078V8.83l-.001-.033a.485.485 0 0 1 .001-.066c.008-.082-.02-.125-.109-.115-.018.002-.036.001-.054.001l-.028-.001h-3.55l-.062-.001c-.065-.001-.098-.001-.114.015s-.016.049-.015.116l.001.064zm19.579-.194h-5.863c-1.954 0-3.908 0-5.86-.002h-.133c-.066-.003-.089.028-.084.089a.486.486 0 0 1 0 .054v3.398c0 .072-.001.107.017.124s.051.017.118.016H85.923c.12 0 .18 0 .209.03s.029.087.029.2v10.335c-.001.059-.001.09.014.106.017.018.052.017.127.017h3.571c.111 0 .166 0 .193-.028s.027-.08.027-.186V12.488l-.001-.059c-.001-.063-.001-.097.015-.114.018-.019.055-.018.133-.018h3.798c.162 0 .162 0 .164-.159V8.759c.001-.072.001-.108-.016-.126s-.053-.017-.123-.016L94 8.618z"/>
      <path fill="#010101" style="fill:var(--color2, #010101)" d="m47.132 0 12.403 16-12.403 16H0V0h47.132zm-26.38 13.662.215.174a.371.371 0 0 0 .106-.107.256.256 0 0 1 .02-.026c.254-.302.507-.606.76-.91.507-.606 1.012-1.212 1.518-1.82.101-.122.097-.177-.018-.276a12.617 12.617 0 0 0-.277-.233c-.803-.657-1.685-1.17-2.684-1.467a9.43 9.43 0 0 0-2.043-.353c-.905-.061-1.802-.031-2.691.174-3.112.716-5.434 3.292-5.707 6.594a7.795 7.795 0 0 0 .225 2.638c.519 1.96 1.645 3.461 3.434 4.45.975.539 2.03.823 3.14.912.94.076 1.87.018 2.788-.189 1.553-.35 2.925-1.056 4.146-2.067a.333.333 0 0 0 .137-.289c-.004-1.572-.004-3.145-.003-4.717v-1.179a.66.66 0 0 0-.003-.062c-.003-.046-.006-.092.006-.134.015-.049-.012-.077-.037-.104-.021-.022-.042-.044-.039-.077.007-.054-.03-.062-.073-.062h-6.556l-.038.001c-.026.001-.052.002-.077-.001-.066-.007-.087.026-.083.087a.657.657 0 0 1 .001.077l-.001.038V17.839l-.001.074c-.001.063-.002.096.014.112s.052.017.125.016H19.772c.072-.001.107-.001.124.016.016.016.015.048.014.11l-.001.078v.679c0 .308 0 .311-.279.445-.818.391-1.681.503-2.573.391-.991-.123-1.784-.591-2.365-1.401-.378-.527-.585-1.122-.662-1.763-.097-.818.002-1.605.373-2.348.448-.892 1.125-1.533 2.098-1.827.682-.207 1.373-.153 2.056-.003.619.135 1.159.437 1.657.816.182.138.359.281.539.427zm18.346-2.98c-1.528-1.39-3.348-2.052-5.229-2.066-.869.002-1.518.072-2.207.251-1.998.521-3.563 1.638-4.602 3.422-1.067 1.83-1.283 3.793-.687 5.812.667 2.257 2.089 3.9 4.29 4.815 1.69.701 3.44.795 5.206.332 2.051-.537 3.624-1.725 4.654-3.578.869-1.562 1.102-3.238.778-4.987-.291-1.572-1.017-2.919-2.203-4zm-8.437 3.528c.666-1.227 1.729-1.815 2.762-1.838 2.094-.005 3.464 1.173 3.837 2.806.226.984.125 1.94-.358 2.834-.57 1.05-1.458 1.661-2.654 1.797-1.156.133-2.165-.194-2.99-1.025a3.579 3.579 0 0 1-.983-1.914c-.172-.928-.066-1.827.386-2.66z"/>
    </symbol>
    <symbol id="javascript" viewBox="0 0 32 32">
      <path fill="#f7df1e" style="fill:var(--color3, #f7df1e)" d="M0 0h32v32H0V0z"/>
      <path style="fill:var(--color4, #000)" d="m8.414 26.741 2.449-1.482c.473.838.902 1.546 1.933 1.546.988 0 1.611-.387 1.611-1.89V14.69h3.007v10.267c0 3.115-1.826 4.532-4.489 4.532-2.406 0-3.802-1.246-4.511-2.75zm10.634-.322 2.448-1.418c.645 1.053 1.482 1.826 2.964 1.826 1.246 0 2.041-.623 2.041-1.482 0-1.031-.816-1.396-2.191-1.997l-.752-.323c-2.17-.923-3.609-2.083-3.609-4.532 0-2.256 1.718-3.974 4.404-3.974 1.912 0 3.287.666 4.274 2.406l-2.341 1.504c-.516-.924-1.074-1.289-1.933-1.289-.881 0-1.439.558-1.439 1.289 0 .902.558 1.268 1.847 1.826l.752.322c2.556 1.096 3.995 2.212 3.995 4.726 0 2.707-2.127 4.189-4.983 4.189-2.792 0-4.597-1.332-5.477-3.072z"/>
    </symbol>

    <symbol id="check" viewBox="0 0 28 28" >
      <circle cx="14" cy="14" r="14" fill="#4DC274"/>
      <path d="M20.6667 9L11.5 18.1667L7.33334 14" stroke="white" stroke-width="2" stroke-linecap="round" stroke-linejoin="round" fill="none"/>
    </symbol>
    <symbol id="youtube" viewBox="0 0 44 44">
      <path fill-rule="evenodd" clip-rule="evenodd" d="M29.21 13.2499C28.02 13.1799 25.57 13.1099 21.86 13.1099H21.37C17.8 13.1099 15.42 13.1799 14.23 13.3199C12.62 13.4599 11.5 13.8799 10.87 14.4399C10.31 14.9299 9.88999 15.8399 9.74999 17.0299C9.67999 17.7999 9.60999 19.4099 9.60999 21.8599V22.2099C9.60999 24.5199 9.67998 26.1299 9.81998 26.8999C10.03 28.0199 10.38 28.8599 11.08 29.3499C11.78 29.9099 12.97 30.2599 14.65 30.3999C15.84 30.4699 18.29 30.5399 22 30.5399H22.49C26.06 30.5399 28.44 30.4699 29.63 30.3299C31.24 30.1899 32.36 29.7699 32.99 29.2099C33.55 28.7199 33.97 27.8099 34.11 26.6199C34.18 25.8499 34.25 24.2399 34.25 21.7899V21.4399C34.25 19.1299 34.18 17.5199 34.04 16.7499C33.83 15.6299 33.48 14.7899 32.78 14.2999C32.08 13.7399 30.89 13.3899 29.21 13.2499ZM26.48 21.8599L18.78 26.4799V17.2399L26.48 21.8599Z" fill="#121417"/>
    </symbol>
    <symbol id="instagram" viewBox="0 0 44 44">
      <path d="M33.1279 17.4115C33.1142 16.4714 32.9401 15.5388 32.6067 14.6596C32.0233 13.1582 30.8354 11.971 29.3315 11.3899C28.4621 11.0633 27.5428 10.8882 26.6124 10.8683C25.4158 10.8149 25.0364 10.8 21.9988 10.8C18.9612 10.8 18.5719 10.8 17.384 10.8683C16.4548 10.8882 15.5355 11.0633 14.6661 11.3899C13.1622 11.971 11.973 13.1582 11.3909 14.6596C11.0638 15.5276 10.8871 16.4453 10.8697 17.373C10.8162 18.5688 10.8 18.9476 10.8 21.9801C10.8 25.0127 10.8 25.4001 10.8697 26.5873C10.8884 27.5162 11.0638 28.4326 11.3909 29.3032C11.9743 30.8033 13.1622 31.9905 14.6673 32.5716C15.5331 32.9094 16.4523 33.1006 17.3852 33.1304C18.5831 33.1838 18.9625 33.2 22.0001 33.2C25.0376 33.2 25.427 33.2 26.6149 33.1304C27.5441 33.1118 28.4633 32.9367 29.334 32.6101C30.8379 32.0277 32.0258 30.8405 32.6092 29.3404C32.9363 28.4711 33.1117 27.5547 33.1304 26.6245C33.1839 25.4299 33.2001 25.0511 33.2001 22.0174C33.1976 18.9848 33.1976 18.5999 33.1279 17.4115ZM21.9913 27.7149C18.8144 27.7149 16.2408 25.1455 16.2408 21.9739C16.2408 18.8023 18.8144 16.233 21.9913 16.233C25.1658 16.233 27.7419 18.8023 27.7419 21.9739C27.7419 25.1455 25.1658 27.7149 21.9913 27.7149ZM27.9707 17.3593C27.2281 17.3593 26.6298 16.7607 26.6298 16.0206C26.6298 15.2805 27.2281 14.6819 27.9707 14.6819C28.7108 14.6819 29.3104 15.2805 29.3104 16.0206C29.3104 16.7607 28.7108 17.3593 27.9707 17.3593Z" fill="#121417"/>
<path d="M21.9931 25.479C23.9281 25.479 25.4966 23.9104 25.4966 21.9755C25.4966 20.0406 23.9281 18.472 21.9931 18.472C20.0582 18.472 18.4896 20.0406 18.4896 21.9755C18.4896 23.9104 20.0582 25.479 21.9931 25.479Z" fill="#121417"/>
    </symbol>
    <symbol id="facebook" viewBox="0 0 44 44">
     <path d="M25.08 12.0601C25.29 12.0601 25.5 12.0601 25.92 12.0601V15.2101C25.71 15.2101 25.29 15.2101 24.87 15.2101C24.45 15.2101 24.03 15.2101 23.82 15.4201C23.61 15.6301 23.61 15.8401 23.61 16.3301C23.61 16.7501 23.61 17.0301 23.61 17.4501H25.92V20.1101H23.61V31.6601H20.04V20.0401H18.15V17.3801H20.04V16.4701C20.04 14.9301 20.25 13.8101 20.67 13.3201C21.3 12.4101 22.56 11.9901 24.45 11.9901C24.66 12.0601 24.87 12.0601 25.08 12.0601Z" fill="#121417"/>
    </symbol>
<symbol id="burger" viewBox="0 0 40 28">
<line x1="7.58691" y1="4.43939" x2="38.5" y2="4.43939" stroke="#121417" stroke-width="3" stroke-linecap="round"/>
<line x1="7.58691" y1="21.4091" x2="38.5" y2="21.4091" stroke="#121417" stroke-width="3" stroke-linecap="round"/>
<line x1="17.1521" y1="12.9243" x2="38.4999" y2="12.9243" stroke="#121417" stroke-width="3" stroke-linecap="round"/>
</symbol>
<symbol id="close" viewBox="0 0 40 40">
  <path d="M30 10L10 30M10 10L30 30" stroke="currentColor" stroke-width="3" stroke-linecap="round" stroke-linejoin="round" fill="#ffffff"/>
</symbol>
    <symbol id="facebook-white" viewBox="0 0 44 44">
<path d="M23.8598 11.7701C24.0548 11.7701 24.2498 11.7701 24.6398 11.7701V14.6951C24.4448 14.6951 24.0548 14.6951 23.6648 14.6951C23.2748 14.6951 22.8848 14.6951 22.6898 14.8901C22.4948 15.0851 22.4948 15.2801 22.4948 15.7351C22.4948 16.1251 22.4948 16.3851 22.4948 16.7751H24.6398V19.2451H22.4948V29.9701H19.1798V19.1801H17.4248V16.7101H19.1798V15.8651C19.1798 14.4351 19.3748 13.3951 19.7648 12.9401C20.3498 12.0951 21.5198 11.7051 23.2748 11.7051C23.4698 11.7701 23.6648 11.7701 23.8598 11.7701Z" fill="white"/>
    </symbol>
    <symbol id="instagram-white" viewBox="0 0 44 44">
<path d="M31.3331 16.7392C31.3204 15.8663 31.1587 15.0003 30.8491 14.1839C30.3074 12.7898 29.2044 11.6874 27.8079 11.1477C27.0005 10.8445 26.147 10.6819 25.283 10.6634C24.1718 10.6138 23.8196 10.6 20.9989 10.6C18.1783 10.6 17.8168 10.6 16.7137 10.6634C15.8509 10.6819 14.9973 10.8445 14.19 11.1477C12.7935 11.6874 11.6893 12.7898 11.1487 14.1839C10.845 14.9899 10.681 15.8421 10.6648 16.7035C10.6151 17.8139 10.6001 18.1656 10.6001 20.9816C10.6001 23.7975 10.6001 24.1573 10.6648 25.2596C10.6821 26.1222 10.845 26.9732 11.1487 27.7815C11.6905 29.1745 12.7935 30.2769 14.1911 30.8165C14.995 31.1302 15.8486 31.3078 16.7149 31.3354C17.8272 31.385 18.1795 31.4 21.0001 31.4C23.8207 31.4 24.1822 31.4 25.2853 31.3354C26.1481 31.3181 27.0017 31.1555 27.8102 30.8523C29.2067 30.3115 30.3097 29.2091 30.8515 27.8161C31.1552 27.0089 31.3181 26.1579 31.3354 25.2942C31.3851 24.1849 31.4001 23.8332 31.4001 21.0162C31.3978 18.2002 31.3978 17.8428 31.3331 16.7392ZM20.992 26.3067C18.042 26.3067 15.6523 23.9209 15.6523 20.9758C15.6523 18.0307 18.042 15.6449 20.992 15.6449C23.9397 15.6449 26.3318 18.0307 26.3318 20.9758C26.3318 23.9209 23.9397 26.3067 20.992 26.3067ZM26.5443 16.6908C25.8547 16.6908 25.2992 16.135 25.2992 15.4477C25.2992 14.7605 25.8547 14.2047 26.5443 14.2047C27.2316 14.2047 27.7883 14.7605 27.7883 15.4477C27.7883 16.135 27.2316 16.6908 26.5443 16.6908Z" fill="white"/>
<path d="M20.9935 24.2305C22.7902 24.2305 24.2467 22.7739 24.2467 20.9772C24.2467 19.1805 22.7902 17.724 20.9935 17.724C19.1968 17.724 17.7402 19.1805 17.7402 20.9772C17.7402 22.7739 19.1968 24.2305 20.9935 24.2305Z" fill="white"/>
    </symbol>
  <symbol id="youtube-white" viewBox="0 0 44 44">
<path fill-rule="evenodd" clip-rule="evenodd" d="M27.6951 12.8749C26.5901 12.8099 24.3151 12.7449 20.8701 12.7449H20.4151C17.1001 12.7449 14.8901 12.8099 13.7851 12.9399C12.2901 13.0699 11.2501 13.4599 10.6651 13.9799C10.1451 14.4349 9.75513 15.2799 9.62513 16.3849C9.56013 17.0999 9.49512 18.5949 9.49512 20.8699V21.1949C9.49512 23.3399 9.56011 24.8349 9.69011 25.5499C9.88511 26.5899 10.2101 27.3699 10.8601 27.8249C11.5101 28.3449 12.6151 28.6699 14.1751 28.7999C15.2801 28.8649 17.5551 28.9299 21.0001 28.9299H21.4551C24.7701 28.9299 26.9801 28.8649 28.0851 28.7349C29.5801 28.6049 30.6201 28.2149 31.2051 27.6949C31.7251 27.2399 32.1151 26.3949 32.2451 25.2899C32.3101 24.5749 32.3751 23.0799 32.3751 20.8049V20.4799C32.3751 18.3349 32.3101 16.8399 32.1801 16.1249C31.9851 15.0849 31.6601 14.3049 31.0101 13.8499C30.3601 13.3299 29.2551 13.0049 27.6951 12.8749ZM25.1601 20.8699L18.0101 25.1599V16.5799L25.1601 20.8699Z" fill="white"/>
    </symbol>
  </defs>
</svg>


