<svg aria-hidden="true" style="position:absolute;width:0;height:0;overflow:hidden" xmlns="http://www.w3.org/2000/svg">
  <defs>
    <symbol id="logo" viewBox="0 0 107 32">
      <path fill="#ff6b0a" style="fill:var(--color1, #ff6b0a)" d="M106.667 0v32H59.536V0h47.131zM74.42 8.811v13.927l.001.044a.842.842 0 0 1-.001.087c-.007.08.015.128.107.115a.485.485 0 0 1 .066-.001l.033.001h3.582c.075.001.112.001.129-.017s.016-.051.014-.116l-.001-.078V8.83l-.001-.033a.485.485 0 0 1 .001-.066c.008-.082-.02-.125-.109-.115-.018.002-.036.001-.054.001l-.028-.001h-3.55l-.062-.001c-.065-.001-.098-.001-.114.015s-.016.049-.015.116l.001.064zm19.579-.194h-5.863c-1.954 0-3.908 0-5.86-.002h-.133c-.066-.003-.089.028-.084.089a.486.486 0 0 1 0 .054v3.398c0 .072-.001.107.017.124s.051.017.118.016H85.923c.12 0 .18 0 .209.03s.029.087.029.2v10.335c-.001.059-.001.09.014.106.017.018.052.017.127.017h3.571c.111 0 .166 0 .193-.028s.027-.08.027-.186V12.488l-.001-.059c-.001-.063-.001-.097.015-.114.018-.019.055-.018.133-.018h3.798c.162 0 .162 0 .164-.159V8.759c.001-.072.001-.108-.016-.126s-.053-.017-.123-.016L94 8.618z"/>
      <path fill="#010101" style="fill:var(--color2, #010101)" d="m47.132 0 12.403 16-12.403 16H0V0h47.132zm-26.38 13.662.215.174a.371.371 0 0 0 .106-.107.256.256 0 0 1 .02-.026c.254-.302.507-.606.76-.91.507-.606 1.012-1.212 1.518-1.82.101-.122.097-.177-.018-.276a12.617 12.617 0 0 0-.277-.233c-.803-.657-1.685-1.17-2.684-1.467a9.43 9.43 0 0 0-2.043-.353c-.905-.061-1.802-.031-2.691.174-3.112.716-5.434 3.292-5.707 6.594a7.795 7.795 0 0 0 .225 2.638c.519 1.96 1.645 3.461 3.434 4.45.975.539 2.03.823 3.14.912.94.076 1.87.018 2.788-.189 1.553-.35 2.925-1.056 4.146-2.067a.333.333 0 0 0 .137-.289c-.004-1.572-.004-3.145-.003-4.717v-1.179a.66.66 0 0 0-.003-.062c-.003-.046-.006-.092.006-.134.015-.049-.012-.077-.037-.104-.021-.022-.042-.044-.039-.077.007-.054-.03-.062-.073-.062h-6.556l-.038.001c-.026.001-.052.002-.077-.001-.066-.007-.087.026-.083.087a.657.657 0 0 1 .001.077l-.001.038V17.839l-.001.074c-.001.063-.002.096.014.112s.052.017.125.016H19.772c.072-.001.107-.001.124.016.016.016.015.048.014.11l-.001.078v.679c0 .308 0 .311-.279.445-.818.391-1.681.503-2.573.391-.991-.123-1.784-.591-2.365-1.401-.378-.527-.585-1.122-.662-1.763-.097-.818.002-1.605.373-2.348.448-.892 1.125-1.533 2.098-1.827.682-.207 1.373-.153 2.056-.003.619.135 1.159.437 1.657.816.182.138.359.281.539.427zm18.346-2.98c-1.528-1.39-3.348-2.052-5.229-2.066-.869.002-1.518.072-2.207.251-1.998.521-3.563 1.638-4.602 3.422-1.067 1.83-1.283 3.793-.687 5.812.667 2.257 2.089 3.9 4.29 4.815 1.69.701 3.44.795 5.206.332 2.051-.537 3.624-1.725 4.654-3.578.869-1.562 1.102-3.238.778-4.987-.291-1.572-1.017-2.919-2.203-4zm-8.437 3.528c.666-1.227 1.729-1.815 2.762-1.838 2.094-.005 3.464 1.173 3.837 2.806.226.984.125 1.94-.358 2.834-.57 1.05-1.458 1.661-2.654 1.797-1.156.133-2.165-.194-2.99-1.025a3.579 3.579 0 0 1-.983-1.914c-.172-.928-.066-1.827.386-2.66z"/>
    </symbol>
    <symbol id="javascript" viewBox="0 0 32 32">
      <path fill="#f7df1e" style="fill:var(--color3, #f7df1e)" d="M0 0h32v32H0V0z"/>
      <path style="fill:var(--color4, #000)" d="m8.414 26.741 2.449-1.482c.473.838.902 1.546 1.933 1.546.988 0 1.611-.387 1.611-1.89V14.69h3.007v10.267c0 3.115-1.826 4.532-4.489 4.532-2.406 0-3.802-1.246-4.511-2.75zm10.634-.322 2.448-1.418c.645 1.053 1.482 1.826 2.964 1.826 1.246 0 2.041-.623 2.041-1.482 0-1.031-.816-1.396-2.191-1.997l-.752-.323c-2.17-.923-3.609-2.083-3.609-4.532 0-2.256 1.718-3.974 4.404-3.974 1.912 0 3.287.666 4.274 2.406l-2.341 1.504c-.516-.924-1.074-1.289-1.933-1.289-.881 0-1.439.558-1.439 1.289 0 .902.558 1.268 1.847 1.826l.752.322c2.556 1.096 3.995 2.212 3.995 4.726 0 2.707-2.127 4.189-4.983 4.189-2.792 0-4.597-1.332-5.477-3.072z"/>
    </symbol>

    <symbol id="check" viewBox="0 0 28 28" >
      <circle cx="14" cy="14" r="14" fill="#4DC274"/>
      <path d="M20.6667 9L11.5 18.1667L7.33334 14" stroke="white" stroke-width="2" stroke-linecap="round" stroke-linejoin="round" fill="none"/>
    </symbol>

    <symbol id="facebook" viewBox="0 0 28 28">
      <path fill="currentColor" d="M17.08 4.06C17.29 4.06 17.5 4.06 17.92 4.06V7.21C17.71 7.21 17.29 7.21 16.87 7.21C16.45 7.21 16.03 7.21 15.82 7.42C15.61 7.63 15.61 7.84 15.61 8.33C15.61 8.75 15.61 9.03 15.61 9.45H17.92V12.11H15.61V23.66H12.04V12.04H10.15V9.38H12.04V8.47C12.04 6.93 12.25 5.81 12.67 5.32C13.3 4.41 14.56 3.99 16.45 3.99C16.66 4.06 16.87 4.06 17.08 4.06Z"/>
    </symbol>

    <symbol id="instagram" viewBox="0 0 28 28">
      <path fill="currentColor" transform="translate(2.8,2.8)" d="M22.3279 6.61147C22.3142 5.67141 22.14 4.7388 21.8067 3.85959C21.2233 2.35822 20.0354 1.17104 18.5315 0.589866C17.662 0.263267 16.7428 0.0881695 15.8123 0.0683003C14.6157 0.014902 14.2363 0 11.1988 0C8.16117 0 7.77183 8.32707e-08 6.58392 0.0683003C5.65473 0.0881695 4.7355 0.263267 3.86602 0.589866C2.36215 1.17104 1.17299 2.35822 0.590848 3.85959C0.263705 4.72762 0.0870724 5.64533 0.0696579 6.57297C0.0161706 7.76884 0 8.1476 0 11.1801C0 14.2127 -9.26771e-09 14.6001 0.0696579 15.7873C0.0883163 16.7162 0.263705 17.6326 0.590848 18.5032C1.17423 20.0033 2.36215 21.1905 3.86726 21.7716C4.73301 22.1094 5.65224 22.3007 6.58516 22.3305C7.78303 22.3839 8.16242 22.4 11.2 22.4C14.2376 22.4 14.6269 22.4 15.8148 22.3305C16.744 22.3118 17.6633 22.1367 18.534 21.8101C20.0378 21.2277 21.2258 20.0405 21.8092 18.5404C22.1363 17.6711 22.3117 16.7547 22.3303 15.8245C22.3838 14.6299 22.4 14.2512 22.4 11.2174C22.3975 8.18486 22.3975 7.79989 22.3279 6.61147ZM11.1913 16.9149C8.01439 16.9149 5.44078 14.3455 5.44078 11.1739C5.44078 8.00231 8.01439 5.43298 11.1913 5.43298C14.3657 5.43298 16.9418 8.00231 16.9418 11.1739C16.9418 14.3455 14.3657 16.9149 11.1913 16.9149ZM17.1707 6.55931C16.4281 6.55931 15.8298 5.96075 15.8298 5.22062C15.8298 4.4805 16.4281 3.88194 17.1707 3.88194C17.9108 3.88194 18.5104 4.4805 18.5104 5.22062C18.5104 5.96075 17.9108 6.55931 17.1707 6.55931Z"/>
      <path fill="currentColor" transform="translate(10.4888,10.472)" d="M3.5035 7.007C5.43843 7.007 7.007 5.43843 7.007 3.5035C7.007 1.56857 5.43843 0 3.5035 0C1.56857 0 0 1.56857 0 3.5035C0 5.43843 1.56857 7.007 3.5035 7.007Z"/>
    </symbol>

    <symbol id="youtube" viewBox="0 0 28 28">
      <path fill="currentColor" fill-rule="evenodd" clip-rule="evenodd" d="M21.21 5.24986C20.02 5.17986 17.57 5.10986 13.86 5.10986H13.37C9.80003 5.10986 7.42006 5.17986 6.23006 5.31986C4.62006 5.45986 3.50003 5.87986 2.87003 6.43986C2.31003 6.92986 1.89004 7.83986 1.75004 9.02986C1.68004 9.79986 1.61003 11.4099 1.61003 13.8599V14.2099C1.61003 16.5199 1.68003 18.1299 1.82003 18.8999C2.03003 20.0199 2.38006 20.8599 3.08006 21.3499C3.78006 21.9099 4.97004 22.2599 6.65004 22.3999C7.84004 22.4699 10.29 22.5399 14 22.5399H14.4901C18.0601 22.5399 20.4401 22.4699 21.6301 22.3299C23.2401 22.1899 24.3601 21.7699 24.9901 21.2099C25.5501 20.7199 25.97 19.8099 26.11 18.6199C26.18 17.8499 26.25 16.2399 26.25 13.7899V13.4399C26.25 11.1299 26.1801 9.51986 26.0401 8.74986C25.8301 7.62986 25.4801 6.78986 24.7801 6.29986C24.0801 5.73986 22.89 5.38986 21.21 5.24986ZM18.4801 13.8599L10.7801 18.4799V9.23986L18.4801 13.8599Z"/>
    </symbol>
  </defs>
</svg>
